<svg id="Layer_1" data-name="Layer 1" xmlns="http://www.w3.org/2000/svg" viewBox="0 0 727.95 144.45"><defs><style>.cls-1{fill:#a89e8c;}</style></defs><path class="cls-1" d="M197,587.51V477.33H161.35V617.12H264.67V587.51Zm65.7,27.61H163.35V479.33H195V589.51h67.7Z" transform="translate(-161.35 -475)"/><path class="cls-1" d="M414.56,518.3a69.1,69.1,0,0,0-16.08-23,73.14,73.14,0,0,0-24.23-15.06A84.76,84.76,0,0,0,344,475a83.45,83.45,0,0,0-30.3,5.37,74.37,74.37,0,0,0-24.22,15.15,69.31,69.31,0,0,0-16.08,22.87,75.63,75.63,0,0,0,0,57.56,68.9,68.9,0,0,0,16.08,23,74,74,0,0,0,24.32,15.16,88.66,88.66,0,0,0,60.5.1,73.3,73.3,0,0,0,24.23-15.06A68.74,68.74,0,0,0,414.56,576a76.09,76.09,0,0,0,0-57.74Zm-1.84,57a66.12,66.12,0,0,1-15.62,22.4,70.69,70.69,0,0,1-23.56,14.65,86.64,86.64,0,0,1-59.07-.1,71.72,71.72,0,0,1-23.67-14.74,66.7,66.7,0,0,1-15.62-22.31,73.7,73.7,0,0,1,0-56A66.9,66.9,0,0,1,290.8,497a72,72,0,0,1,23.57-14.74A81.07,81.07,0,0,1,344,477a82.57,82.57,0,0,1,29.59,5.14,70.69,70.69,0,0,1,23.56,14.65,66.46,66.46,0,0,1,15.62,22.31,74.06,74.06,0,0,1,0,56.16Zm-38.5-59.37a40.87,40.87,0,0,0-13.49-9.11,43,43,0,0,0-16.78-3.2,43.66,43.66,0,0,0-16.87,3.2,39.48,39.48,0,0,0-13.49,9.11,43.1,43.1,0,0,0-8.92,13.78,49.75,49.75,0,0,0,0,35.11,43,43,0,0,0,8.92,13.77,39.37,39.37,0,0,0,13.49,9.12,43.85,43.85,0,0,0,16.87,3.2,43.18,43.18,0,0,0,16.78-3.2,40.75,40.75,0,0,0,13.49-9.12,42.07,42.07,0,0,0,9-13.77,49.75,49.75,0,0,0,0-35.11A42.22,42.22,0,0,0,374.22,515.89ZM381.38,564a40.07,40.07,0,0,1-8.59,13.13A39,39,0,0,1,360,585.82a41.18,41.18,0,0,1-16,3,42.06,42.06,0,0,1-16.11-3A37.56,37.56,0,0,1,315,577.16,41.21,41.21,0,0,1,306.52,564a47.79,47.79,0,0,1,0-33.6A41.26,41.26,0,0,1,315,517.28a37.77,37.77,0,0,1,12.81-8.65A41.87,41.87,0,0,1,344,505.58a41.36,41.36,0,0,1,16,3,38.94,38.94,0,0,1,12.83,8.68,40.23,40.23,0,0,1,8.59,13.12,47.65,47.65,0,0,1,0,33.6Z" transform="translate(-161.35 -475)"/><path class="cls-1" d="M530.7,477.33V554.4c0,12.23-2.5,21.14-7.42,26.48s-11.77,8-20.84,8-15.69-2.61-20.65-8-7.42-14.25-7.42-26.48V477.33H438.75v77.85c0,20.5,5.68,36.52,16.89,47.59s26.88,16.68,46.61,16.68,35.21-5.62,46.41-16.68,16.88-27.09,16.88-47.59V477.33Zm32.85,77.85q0,30.06-16.3,46.17t-45,16.1q-28.92,0-45.2-16.1t-16.3-46.17V479.33h31.62V554.4q0,19.2,7.95,27.84t22.12,8.63q14.35,0,22.31-8.63t8-27.84V479.33h30.85Z" transform="translate(-161.35 -475)"/><path class="cls-1" d="M592.78,477.33V617.12h35.61V477.33Zm33.61,137.79H594.78V479.33h31.61Z" transform="translate(-161.35 -475)"/><path class="cls-1" d="M758,556.75a35.26,35.26,0,0,0-12-11.92,77.11,77.11,0,0,0-15.73-7.07,176.2,176.2,0,0,0-17.07-4.62c-5.65-1.21-10.84-2.45-15.43-3.66a29.49,29.49,0,0,1-10.54-4.79,8.51,8.51,0,0,1-3.49-7.15A10.61,10.61,0,0,1,685.9,511a15.42,15.42,0,0,1,7.32-4.84c3.52-1.28,8.31-1.92,14.26-1.92a69.8,69.8,0,0,1,18.1,2.55,77.26,77.26,0,0,1,18.34,7.66l2,1.13,11.42-27.33-1.44-.9a77.53,77.53,0,0,0-22.4-9.17,107.32,107.32,0,0,0-25.8-3.16c-13,0-24,2-32.73,5.9S659.5,490.26,655.17,497a40.47,40.47,0,0,0-6.53,22.33c0,7.45,1.5,13.76,4.45,18.76A34.89,34.89,0,0,0,665,550.19a70.23,70.23,0,0,0,16,7.19c5.68,1.76,11.38,3.28,16.94,4.5s10.66,2.52,15.3,3.85a33.13,33.13,0,0,1,10.7,4.92,8.25,8.25,0,0,1,3.47,7,9.13,9.13,0,0,1-2.24,6.17c-1.57,1.85-4.11,3.38-7.56,4.54s-8.43,1.84-14.39,1.84a75.21,75.21,0,0,1-23.62-3.88,72.73,72.73,0,0,1-20-9.9l-2-1.45-12.33,27.36,1.26,1c6.24,4.79,14.59,8.72,24.81,11.68a114.2,114.2,0,0,0,31.88,4.45c13,0,24.08-2,32.84-6s15.55-9.42,19.94-16a39.22,39.22,0,0,0,6.64-22.06C762.63,568,761.06,561.77,758,556.75Zm-3.64,39.55q-6.32,9.51-19.11,15.33t-32,5.82a111.8,111.8,0,0,1-31.33-4.37q-15-4.37-24.15-11.35l10.67-23.66A74.34,74.34,0,0,0,679,588.25a76.85,76.85,0,0,0,24.25,4q9.31,0,15-1.94t8.43-5.14a11.2,11.2,0,0,0,2.72-7.47,10.21,10.21,0,0,0-4.27-8.63,34.86,34.86,0,0,0-11.35-5.24q-7.08-2-15.42-3.88t-16.78-4.46a67.92,67.92,0,0,1-15.52-7A32.85,32.85,0,0,1,654.81,537q-4.17-7.08-4.17-17.75a38.3,38.3,0,0,1,6.21-21.24q6.21-9.6,18.91-15.33T707.67,477A105.22,105.22,0,0,1,733,480.1,75,75,0,0,1,754.81,489l-9.89,23.66a78.84,78.84,0,0,0-18.82-7.85,71.22,71.22,0,0,0-18.62-2.62q-9.32,0-14.94,2c-3.75,1.35-6.5,3.2-8.24,5.52a12.62,12.62,0,0,0-2.62,7.76,10.46,10.46,0,0,0,4.27,8.73,31.08,31.08,0,0,0,11.25,5.14q7,1.85,15.52,3.69a171.54,171.54,0,0,1,16.87,4.56,75.84,75.84,0,0,1,15.33,6.88,33.31,33.31,0,0,1,11.35,11.26q4.37,7.08,4.36,17.55A37.11,37.11,0,0,1,754.33,596.3Z" transform="translate(-161.35 -475)"/><path class="cls-1" d="M815.39,587.9V560.48h63.05V531.84H815.39V506.55h71.39V477.33H780.16V617.12H889.3V587.9Zm71.91,27.22H782.16V479.33H884.78v25.22H813.39v29.29h63.05v24.64H813.39V589.9H887.3Z" transform="translate(-161.35 -475)"/></svg>